<svg width="150" height="150" viewBox="0 0 150 150" fill="none" xmlns="http://www.w3.org/2000/svg">
<g clip-path="url(#clip0_864_12)">
<g filter="url(#filter0_d_864_12)">
<path d="M41.4355 16.8379C41.5996 16.8379 41.752 16.8691 41.8926 16.9316C42.0332 16.9902 42.1543 17.0723 42.2559 17.1777C42.3613 17.2793 42.4434 17.4004 42.502 17.541C42.5605 17.6816 42.5898 17.832 42.5898 17.9922C42.5898 18.1484 42.5605 18.2969 42.502 18.4375C42.4434 18.5742 42.3613 18.6953 42.2559 18.8008C42.1543 18.9023 42.0332 18.9824 41.8926 19.041C41.752 19.1035 41.5996 19.1348 41.4355 19.1348C41.2793 19.1348 41.1328 19.1035 40.9961 19.041C40.8594 18.9824 40.7402 18.9023 40.6387 18.8008C40.5371 18.6953 40.457 18.5742 40.3984 18.4375C40.3398 18.2969 40.3105 18.1484 40.3105 17.9922C40.3105 17.832 40.3398 17.6816 40.3984 17.541C40.457 17.4004 40.5371 17.2793 40.6387 17.1777C40.7402 17.0723 40.8594 16.9902 40.9961 16.9316C41.1328 16.8691 41.2793 16.8379 41.4355 16.8379ZM46.2461 16.4453V15.1738H49.8906V16.4453H46.2461ZM54.0449 13.6387H52.8906L52.6973 10.7207H54.2324L54.0449 13.6387ZM56.4414 13.6387H55.293L55.0996 10.7207H56.6348L56.4414 13.6387ZM61.8789 13.6387H60.6543L60.4609 10.7207H62.0664L61.8789 13.6387ZM68.4766 13.6387H67.252L67.0586 10.7207H68.6641L68.4766 13.6387ZM72.6367 16.4453V15.1738H76.2812V16.4453H72.6367ZM81.0215 16.8379C81.1855 16.8379 81.3379 16.8691 81.4785 16.9316C81.6191 16.9902 81.7402 17.0723 81.8418 17.1777C81.9473 17.2793 82.0293 17.4004 82.0879 17.541C82.1465 17.6816 82.1758 17.832 82.1758 17.9922C82.1758 18.1484 82.1465 18.2969 82.0879 18.4375C82.0293 18.5742 81.9473 18.6953 81.8418 18.8008C81.7402 18.9023 81.6191 18.9824 81.4785 19.041C81.3379 19.1035 81.1855 19.1348 81.0215 19.1348C80.8652 19.1348 80.7188 19.1035 80.582 19.041C80.4453 18.9824 80.3262 18.9023 80.2246 18.8008C80.123 18.6953 80.043 18.5742 79.9844 18.4375C79.9258 18.2969 79.8965 18.1484 79.8965 17.9922C79.8965 17.832 79.9258 17.6816 79.9844 17.541C80.043 17.4004 80.123 17.2793 80.2246 17.1777C80.3262 17.0723 80.4453 16.9902 80.582 16.9316C80.7188 16.8691 80.8652 16.8379 81.0215 16.8379ZM97.5508 21.4023V20.2715H104.148V21.4023H97.5508ZM28.2402 30.8379C28.4043 30.8379 28.5566 30.8691 28.6973 30.9316C28.8379 30.9902 28.959 31.0723 29.0605 31.1777C29.166 31.2793 29.248 31.4004 29.3066 31.541C29.3652 31.6816 29.3945 31.832 29.3945 31.9922C29.3945 32.1484 29.3652 32.2969 29.3066 32.4375C29.248 32.5742 29.166 32.6953 29.0605 32.8008C28.959 32.9023 28.8379 32.9824 28.6973 33.041C28.5566 33.1035 28.4043 33.1348 28.2402 33.1348C28.084 33.1348 27.9375 33.1035 27.8008 33.041C27.6641 32.9824 27.5449 32.9023 27.4434 32.8008C27.3418 32.6953 27.2617 32.5742 27.2031 32.4375C27.1445 32.2969 27.1152 32.1484 27.1152 31.9922C27.1152 31.832 27.1445 31.6816 27.2031 31.541C27.2617 31.4004 27.3418 31.2793 27.4434 31.1777C27.5449 31.0723 27.6641 30.9902 27.8008 30.9316C27.9375 30.8691 28.084 30.8379 28.2402 30.8379ZM35.4883 27.6387H34.2637L34.0703 24.7207H35.6758L35.4883 27.6387ZM86.8281 24.7207L88.3633 26.2559H86.9336L84.8945 24.7207H86.8281ZM95.3945 35.4609C94.4453 34.6562 93.7324 33.793 93.2559 32.8711C92.7832 31.9492 92.5469 30.957 92.5469 29.8945C92.5469 29.3008 92.6172 28.7402 92.7578 28.2129C92.8984 27.6816 93.0957 27.1836 93.3496 26.7188C93.6074 26.2539 93.9121 25.8184 94.2637 25.4121C94.6191 25.002 95.0078 24.6191 95.4297 24.2637L96.2441 25.0781C95.4824 25.7617 94.9102 26.5 94.5273 27.293C94.1445 28.0859 93.9531 28.9199 93.9531 29.7949C93.9531 30.6816 94.1445 31.5352 94.5273 32.3555C94.9102 33.1719 95.4824 33.918 96.2441 34.5938L95.3945 35.4609ZM106.234 24.7207L110.33 34.2598H108.936L104.846 24.7207H106.234ZM16.5098 44.5977C16.498 44.707 16.4883 44.8242 16.4805 44.9492C16.4766 45.0742 16.4746 45.1816 16.4746 45.2715C16.4746 45.4277 16.4883 45.5293 16.5156 45.5762C16.543 45.623 16.584 45.6465 16.6387 45.6465C16.7871 45.6465 16.9141 45.4219 17.0195 44.9727C17.1289 44.5234 17.1836 43.8516 17.1836 42.957C17.1836 42.4141 17.1523 41.9355 17.0898 41.5215C17.0312 41.1035 16.9355 40.7539 16.8027 40.4727C16.6699 40.1914 16.498 39.9785 16.2871 39.834C16.0762 39.6895 15.8223 39.6172 15.5254 39.6172C15.2949 39.6172 15.0723 39.6816 14.8574 39.8105C14.6426 39.9395 14.4395 40.1211 14.248 40.3555C14.0605 40.5859 13.8887 40.8633 13.7324 41.1875C13.5801 41.5117 13.4473 41.8711 13.334 42.2656C13.2246 42.6562 13.1387 43.0762 13.0762 43.5254C13.0137 43.9746 12.9824 44.4414 12.9824 44.9258C12.9824 45.5039 13.0273 46.0117 13.1172 46.4492C13.207 46.8867 13.3359 47.252 13.5039 47.5449C13.6758 47.8379 13.8809 48.0586 14.1191 48.207C14.3613 48.3555 14.6348 48.4297 14.9395 48.4297C15.0879 48.4297 15.2344 48.4199 15.3789 48.4004C15.5273 48.3809 15.6797 48.3496 15.8359 48.3066C15.9922 48.2637 16.1543 48.2051 16.3223 48.1309C16.4902 48.0566 16.6719 47.9629 16.8672 47.8496V48.9688C16.5742 49.125 16.2559 49.2461 15.9121 49.332C15.5684 49.418 15.2148 49.4609 14.8516 49.4609C14.3359 49.4609 13.8887 49.3652 13.5098 49.1738C13.1348 48.9863 12.8242 48.7031 12.5781 48.3242C12.332 47.9453 12.1484 47.4746 12.0273 46.9121C11.9062 46.3457 11.8438 45.6875 11.8398 44.9375C11.8359 44.3477 11.875 43.7812 11.957 43.2383C12.0391 42.6953 12.1562 42.1895 12.3086 41.7207C12.4648 41.248 12.6523 40.8203 12.8711 40.4375C13.0938 40.0508 13.3438 39.7207 13.6211 39.4473C13.8984 39.1738 14.2012 38.9629 14.5293 38.8145C14.8574 38.6621 15.2051 38.5859 15.5723 38.5859C16.0332 38.5859 16.4355 38.6797 16.7793 38.8672C17.123 39.0547 17.4082 39.3301 17.6348 39.6934C17.8652 40.0566 18.0371 40.5039 18.1504 41.0352C18.2637 41.5664 18.3203 42.1738 18.3203 42.8574C18.3164 43.5371 18.2773 44.1211 18.2031 44.6094C18.1289 45.0938 18.0156 45.4941 17.8633 45.8105C17.7109 46.123 17.5195 46.3535 17.2891 46.502C17.0586 46.6504 16.7871 46.7246 16.4746 46.7246C16.0137 46.7246 15.7207 46.5 15.5957 46.0508C15.4824 46.2695 15.3359 46.4375 15.1562 46.5547C14.9805 46.668 14.7832 46.7246 14.5645 46.7246C14.3887 46.7246 14.2305 46.6895 14.0898 46.6191C13.9531 46.5449 13.834 46.4297 13.7324 46.2734C13.6348 46.1172 13.5586 45.918 13.5039 45.6758C13.4531 45.4297 13.4277 45.1348 13.4277 44.791C13.4277 44.541 13.4375 44.2852 13.457 44.0234C13.4766 43.7617 13.5117 43.5078 13.5625 43.2617C13.6133 43.0117 13.6816 42.7773 13.7676 42.5586C13.8535 42.3359 13.9629 42.1426 14.0957 41.9785C14.2324 41.8145 14.3945 41.6855 14.582 41.5918C14.7734 41.4941 14.9961 41.4453 15.25 41.4453C15.3828 41.4453 15.5117 41.4609 15.6367 41.4922C15.7656 41.5195 15.8691 41.5508 15.9473 41.5859L16.8203 41.3984L16.5098 44.5977ZM15.502 42.582C15.4824 42.5625 15.4512 42.5469 15.4082 42.5352C15.3652 42.5195 15.3203 42.5117 15.2734 42.5117C15.1484 42.5117 15.043 42.584 14.957 42.7285C14.875 42.8691 14.8086 43.0469 14.7578 43.2617C14.7109 43.4766 14.6758 43.7109 14.6523 43.9648C14.6328 44.2188 14.623 44.459 14.623 44.6855C14.623 44.8965 14.627 45.0645 14.6348 45.1895C14.6465 45.3145 14.6621 45.4121 14.6816 45.4824C14.7012 45.5488 14.7227 45.5938 14.7461 45.6172C14.7734 45.6367 14.8008 45.6465 14.8281 45.6465C14.8789 45.6465 14.9453 45.5996 15.0273 45.5059C15.1094 45.4121 15.1953 45.2617 15.2852 45.0547L15.502 42.582ZM20.1895 48.2598H18.8008L22.8906 38.7207H24.2852L20.1895 48.2598ZM108.062 41.6387H106.838L106.645 38.7207H108.25L108.062 41.6387ZM112.932 38.2637C113.889 39.0605 114.602 39.9219 115.07 40.8477C115.539 41.7695 115.773 42.7637 115.773 43.8301C115.773 44.4238 115.703 44.9844 115.562 45.5117C115.422 46.0391 115.225 46.5371 114.971 47.0059C114.721 47.4746 114.42 47.9121 114.068 48.3184C113.717 48.7285 113.33 49.1094 112.908 49.4609L112.088 48.6465C112.854 47.9629 113.428 47.2227 113.811 46.4258C114.193 45.6289 114.385 44.793 114.385 43.918C114.385 43.0352 114.193 42.1836 113.811 41.3633C113.428 40.543 112.854 39.793 112.088 39.1133L112.932 38.2637ZM138.373 48.1309C138.607 48.1387 138.826 48.125 139.029 48.0898C139.232 48.0547 139.408 47.998 139.557 47.9199C139.709 47.8457 139.828 47.75 139.914 47.6328C140 47.5156 140.043 47.377 140.043 47.2168C140.043 47.1035 140.025 47.0078 139.99 46.9297C139.959 46.8477 139.918 46.7754 139.867 46.7129C139.816 46.6465 139.762 46.584 139.703 46.5254C139.648 46.4629 139.596 46.3984 139.545 46.332C139.494 46.2617 139.451 46.1836 139.416 46.0977C139.385 46.0078 139.369 45.9004 139.369 45.7754C139.369 45.6543 139.391 45.5371 139.434 45.4238C139.477 45.3066 139.539 45.2031 139.621 45.1133C139.703 45.0234 139.803 44.9512 139.92 44.8965C140.041 44.8418 140.178 44.8145 140.33 44.8145C140.521 44.8145 140.693 44.8594 140.846 44.9492C140.998 45.0352 141.127 45.1543 141.232 45.3066C141.338 45.4551 141.418 45.627 141.473 45.8223C141.527 46.0137 141.555 46.2148 141.555 46.4258C141.555 46.7891 141.488 47.1309 141.355 47.4512C141.223 47.7715 141.023 48.0508 140.758 48.2891C140.492 48.5273 140.16 48.7148 139.762 48.8516C139.367 48.9922 138.904 49.0625 138.373 49.0625V48.1309ZM145.211 44.4453V43.1738H148.855V44.4453H145.211ZM151.809 44.4453V43.1738H155.453V44.4453H151.809ZM158.166 48.1309C158.4 48.1387 158.619 48.125 158.822 48.0898C159.025 48.0547 159.201 47.998 159.35 47.9199C159.502 47.8457 159.621 47.75 159.707 47.6328C159.793 47.5156 159.836 47.377 159.836 47.2168C159.836 47.1035 159.818 47.0078 159.783 46.9297C159.752 46.8477 159.711 46.7754 159.66 46.7129C159.609 46.6465 159.555 46.584 159.496 46.5254C159.441 46.4629 159.389 46.3984 159.338 46.332C159.287 46.2617 159.244 46.1836 159.209 46.0977C159.178 46.0078 159.162 45.9004 159.162 45.7754C159.162 45.6543 159.184 45.5371 159.227 45.4238C159.27 45.3066 159.332 45.2031 159.414 45.1133C159.496 45.0234 159.596 44.9512 159.713 44.8965C159.834 44.8418 159.971 44.8145 160.123 44.8145C160.314 44.8145 160.486 44.8594 160.639 44.9492C160.791 45.0352 160.92 45.1543 161.025 45.3066C161.131 45.4551 161.211 45.627 161.266 45.8223C161.32 46.0137 161.348 46.2148 161.348 46.4258C161.348 46.7891 161.281 47.1309 161.148 47.4512C161.016 47.7715 160.816 48.0508 160.551 48.2891C160.285 48.5273 159.953 48.7148 159.555 48.8516C159.16 48.9922 158.697 49.0625 158.166 49.0625V48.1309ZM163.527 49.4023V48.2715H170.125V49.4023H163.527ZM170.125 49.4023V48.2715H176.723V49.4023H170.125ZM177.959 48.1309C178.193 48.1387 178.412 48.125 178.615 48.0898C178.818 48.0547 178.994 47.998 179.143 47.9199C179.295 47.8457 179.414 47.75 179.5 47.6328C179.586 47.5156 179.629 47.377 179.629 47.2168C179.629 47.1035 179.611 47.0078 179.576 46.9297C179.545 46.8477 179.504 46.7754 179.453 46.7129C179.402 46.6465 179.348 46.584 179.289 46.5254C179.234 46.4629 179.182 46.3984 179.131 46.332C179.08 46.2617 179.037 46.1836 179.002 46.0977C178.971 46.0078 178.955 45.9004 178.955 45.7754C178.955 45.6543 178.977 45.5371 179.02 45.4238C179.062 45.3066 179.125 45.2031 179.207 45.1133C179.289 45.0234 179.389 44.9512 179.506 44.8965C179.627 44.8418 179.764 44.8145 179.916 44.8145C180.107 44.8145 180.279 44.8594 180.432 44.9492C180.584 45.0352 180.713 45.1543 180.818 45.3066C180.924 45.4551 181.004 45.627 181.059 45.8223C181.113 46.0137 181.141 46.2148 181.141 46.4258C181.141 46.7891 181.074 47.1309 180.941 47.4512C180.809 47.7715 180.609 48.0508 180.344 48.2891C180.078 48.5273 179.746 48.7148 179.348 48.8516C178.953 48.9922 178.49 49.0625 177.959 49.0625V48.1309ZM184.797 44.4453V43.1738H188.441V44.4453H184.797ZM192.596 41.6387H191.441L191.248 38.7207H192.783L192.596 41.6387ZM194.992 41.6387H193.844L193.65 38.7207H195.186L194.992 41.6387ZM13.5918 62.2598H12.2031L16.293 52.7207H17.6875L13.5918 62.2598ZM72.9707 62.2598H71.582L75.6719 52.7207H77.0664L72.9707 62.2598ZM119.43 52.7207L123.525 62.2598H122.131L118.041 52.7207H119.43ZM132.35 62.2598H130.961L135.051 52.7207H136.445L132.35 62.2598ZM171.936 62.2598H170.547L174.637 52.7207H176.031L171.936 62.2598ZM196.516 63.4023V62.2715H203.113V63.4023H196.516ZM204.924 62.2598H203.535L207.625 52.7207H209.02L204.924 62.2598ZM-1.41406 77.4023V76.2715H5.18359V77.4023H-1.41406ZM5.18359 77.4023V76.2715H11.7812V77.4023H5.18359ZM14.4238 77.4023V65.4023H15.7422V77.4023H14.4238ZM92.1895 76.1309C92.4238 76.1387 92.6426 76.125 92.8457 76.0898C93.0488 76.0547 93.2246 75.998 93.373 75.9199C93.5254 75.8457 93.6445 75.75 93.7305 75.6328C93.8164 75.5156 93.8594 75.377 93.8594 75.2168C93.8594 75.1035 93.8418 75.0078 93.8066 74.9297C93.7754 74.8477 93.7344 74.7754 93.6836 74.7129C93.6328 74.6465 93.5781 74.584 93.5195 74.5254C93.4648 74.4629 93.4121 74.3984 93.3613 74.332C93.3105 74.2617 93.2676 74.1836 93.2324 74.0977C93.2012 74.0078 93.1855 73.9004 93.1855 73.7754C93.1855 73.6543 93.207 73.5371 93.25 73.4238C93.293 73.3066 93.3555 73.2031 93.4375 73.1133C93.5195 73.0234 93.6191 72.9512 93.7363 72.8965C93.8574 72.8418 93.9941 72.8145 94.1465 72.8145C94.3379 72.8145 94.5098 72.8594 94.6621 72.9492C94.8145 73.0352 94.9434 73.1543 95.0488 73.3066C95.1543 73.4551 95.2344 73.627 95.2891 73.8223C95.3438 74.0137 95.3711 74.2148 95.3711 74.4258C95.3711 74.7891 95.3047 75.1309 95.1719 75.4512C95.0391 75.7715 94.8398 76.0508 94.5742 76.2891C94.3086 76.5273 93.9766 76.7148 93.5781 76.8516C93.1836 76.9922 92.7207 77.0625 92.1895 77.0625V76.1309ZM119.986 77.4023V65.4023H121.305V77.4023H119.986ZM125.752 76.2598H124.363L128.453 66.7207H129.848L125.752 76.2598ZM191.729 76.2598H190.34L194.43 66.7207H195.824L191.729 76.2598ZM-11.3457 86.8379C-11.1816 86.8379 -11.0293 86.8691 -10.8887 86.9316C-10.748 86.9902 -10.627 87.0723 -10.5254 87.1777C-10.4199 87.2793 -10.3379 87.4004 -10.2793 87.541C-10.2207 87.6816 -10.1914 87.832 -10.1914 87.9922C-10.1914 88.1484 -10.2207 88.2969 -10.2793 88.4375C-10.3379 88.5742 -10.4199 88.6953 -10.5254 88.8008C-10.627 88.9023 -10.748 88.9824 -10.8887 89.041C-11.0293 89.1035 -11.1816 89.1348 -11.3457 89.1348C-11.502 89.1348 -11.6484 89.1035 -11.7852 89.041C-11.9219 88.9824 -12.041 88.9023 -12.1426 88.8008C-12.2441 88.6953 -12.3242 88.5742 -12.3828 88.4375C-12.4414 88.2969 -12.4707 88.1484 -12.4707 87.9922C-12.4707 87.832 -12.4414 87.6816 -12.3828 87.541C-12.3242 87.4004 -12.2441 87.2793 -12.1426 87.1777C-12.041 87.0723 -11.9219 86.9902 -11.7852 86.9316C-11.6484 86.8691 -11.502 86.8379 -11.3457 86.8379ZM-1.68945 84.8457C-1.68945 85.1504 -1.7207 85.4414 -1.7832 85.7188C-1.8457 85.9922 -1.94727 86.2344 -2.08789 86.4453C-2.22852 86.6523 -2.41406 86.8164 -2.64453 86.9375C-2.87109 87.0586 -3.14844 87.1191 -3.47656 87.1191C-3.69531 87.1191 -3.89453 87.084 -4.07422 87.0137C-4.25 86.9395 -4.41211 86.8496 -4.56055 86.7441C-4.70508 86.6348 -4.83984 86.5176 -4.96484 86.3926C-5.08594 86.2637 -5.20312 86.1465 -5.31641 86.041C-5.42969 85.9355 -5.54102 85.8477 -5.65039 85.7773C-5.75977 85.7031 -5.875 85.666 -5.99609 85.666C-6.16797 85.666 -6.30078 85.7422 -6.39453 85.8945C-6.48828 86.0469 -6.53516 86.3145 -6.53516 86.6973H-7.73633C-7.73633 86.3926 -7.70508 86.1035 -7.64258 85.8301C-7.58008 85.5527 -7.47852 85.3105 -7.33789 85.1035C-7.19727 84.8965 -7.01367 84.7324 -6.78711 84.6113C-6.55664 84.4902 -6.27734 84.4297 -5.94922 84.4297C-5.73047 84.4297 -5.5332 84.4668 -5.35742 84.541C-5.17773 84.6113 -5.01562 84.7012 -4.87109 84.8105C-4.72266 84.916 -4.58789 85.0312 -4.4668 85.1562C-4.3418 85.2812 -4.22266 85.3984 -4.10938 85.5078C-3.99609 85.6133 -3.88477 85.7031 -3.77539 85.7773C-3.66602 85.8477 -3.55078 85.8828 -3.42969 85.8828C-3.25391 85.8828 -3.12109 85.8066 -3.03125 85.6543C-2.9375 85.498 -2.89062 85.2285 -2.89062 84.8457H-1.68945ZM14.2539 80.7207L15.7891 82.2559H14.3594L12.3203 80.7207H14.2539ZM20.4648 80.7207L24.5605 90.2598H23.166L19.0762 80.7207H20.4648ZM46.5801 90.2598H45.1914L49.2812 80.7207H50.6758L46.5801 90.2598ZM60.0508 80.7207L64.1465 90.2598H62.752L58.6621 80.7207H60.0508ZM72.3965 90.1309C72.6309 90.1387 72.8496 90.125 73.0527 90.0898C73.2559 90.0547 73.4316 89.998 73.5801 89.9199C73.7324 89.8457 73.8516 89.75 73.9375 89.6328C74.0234 89.5156 74.0664 89.377 74.0664 89.2168C74.0664 89.1035 74.0488 89.0078 74.0137 88.9297C73.9824 88.8477 73.9414 88.7754 73.8906 88.7129C73.8398 88.6465 73.7852 88.584 73.7266 88.5254C73.6719 88.4629 73.6191 88.3984 73.5684 88.332C73.5176 88.2617 73.4746 88.1836 73.4395 88.0977C73.4082 88.0078 73.3926 87.9004 73.3926 87.7754C73.3926 87.6543 73.4141 87.5371 73.457 87.4238C73.5 87.3066 73.5625 87.2031 73.6445 87.1133C73.7266 87.0234 73.8262 86.9512 73.9434 86.8965C74.0645 86.8418 74.2012 86.8145 74.3535 86.8145C74.5449 86.8145 74.7168 86.8594 74.8691 86.9492C75.0215 87.0352 75.1504 87.1543 75.2559 87.3066C75.3613 87.4551 75.4414 87.627 75.4961 87.8223C75.5508 88.0137 75.5781 88.2148 75.5781 88.4258C75.5781 88.7891 75.5117 89.1309 75.3789 89.4512C75.2461 89.7715 75.0469 90.0508 74.7812 90.2891C74.5156 90.5273 74.1836 90.7148 73.7852 90.8516C73.3906 90.9922 72.9277 91.0625 72.3965 91.0625V90.1309ZM93.5957 91.4023V79.4023H94.9141V91.4023H93.5957ZM119.154 90.2598H117.766L121.855 80.7207H123.25L119.154 90.2598ZM-24.541 100.838C-24.377 100.838 -24.2246 100.869 -24.084 100.932C-23.9434 100.99 -23.8223 101.072 -23.7207 101.178C-23.6152 101.279 -23.5332 101.4 -23.4746 101.541C-23.416 101.682 -23.3867 101.832 -23.3867 101.992C-23.3867 102.148 -23.416 102.297 -23.4746 102.438C-23.5332 102.574 -23.6152 102.695 -23.7207 102.801C-23.8223 102.902 -23.9434 102.982 -24.084 103.041C-24.2246 103.104 -24.377 103.135 -24.541 103.135C-24.6973 103.135 -24.8438 103.104 -24.9805 103.041C-25.1172 102.982 -25.2363 102.902 -25.3379 102.801C-25.4395 102.695 -25.5195 102.574 -25.5781 102.438C-25.6367 102.297 -25.666 102.148 -25.666 101.992C-25.666 101.832 -25.6367 101.682 -25.5781 101.541C-25.5195 101.4 -25.4395 101.279 -25.3379 101.178C-25.2363 101.072 -25.1172 100.99 -24.9805 100.932C-24.8438 100.869 -24.6973 100.838 -24.541 100.838ZM-14.8848 98.8457C-14.8848 99.1504 -14.916 99.4414 -14.9785 99.7188C-15.041 99.9922 -15.1426 100.234 -15.2832 100.445C-15.4238 100.652 -15.6094 100.816 -15.8398 100.938C-16.0664 101.059 -16.3438 101.119 -16.6719 101.119C-16.8906 101.119 -17.0898 101.084 -17.2695 101.014C-17.4453 100.939 -17.6074 100.85 -17.7559 100.744C-17.9004 100.635 -18.0352 100.518 -18.1602 100.393C-18.2812 100.264 -18.3984 100.146 -18.5117 100.041C-18.625 99.9355 -18.7363 99.8477 -18.8457 99.7773C-18.9551 99.7031 -19.0703 99.666 -19.1914 99.666C-19.3633 99.666 -19.4961 99.7422 -19.5898 99.8945C-19.6836 100.047 -19.7305 100.314 -19.7305 100.697H-20.9316C-20.9316 100.393 -20.9004 100.104 -20.8379 99.8301C-20.7754 99.5527 -20.6738 99.3105 -20.5332 99.1035C-20.3926 98.8965 -20.209 98.7324 -19.9824 98.6113C-19.752 98.4902 -19.4727 98.4297 -19.1445 98.4297C-18.9258 98.4297 -18.7285 98.4668 -18.5527 98.541C-18.373 98.6113 -18.2109 98.7012 -18.0664 98.8105C-17.918 98.916 -17.7832 99.0312 -17.6621 99.1562C-17.5371 99.2812 -17.418 99.3984 -17.3047 99.5078C-17.1914 99.6133 -17.0801 99.7031 -16.9707 99.7773C-16.8613 99.8477 -16.7461 99.8828 -16.625 99.8828C-16.4492 99.8828 -16.3164 99.8066 -16.2266 99.6543C-16.1328 99.498 -16.0859 99.2285 -16.0859 98.8457H-14.8848ZM27.4492 94.7207L28.9844 96.2559H27.5547L25.5156 94.7207H27.4492ZM33.6602 94.7207L37.7559 104.26H36.3613L32.2715 94.7207H33.6602ZM67.0352 94.7207L68.5703 96.2559H67.1406L65.1016 94.7207H67.0352ZM86.166 104.26H84.7773L88.8672 94.7207H90.2617L86.166 104.26ZM104.148 105.402V104.271H110.746V105.402H104.148ZM112.557 104.26H111.168L115.258 94.7207H116.652L112.557 104.26ZM137.137 105.402V104.271H143.734V105.402H137.137ZM145.545 104.26H144.156L148.246 94.7207H149.641L145.545 104.26ZM-37.7363 114.838C-37.5723 114.838 -37.4199 114.869 -37.2793 114.932C-37.1387 114.99 -37.0176 115.072 -36.916 115.178C-36.8105 115.279 -36.7285 115.4 -36.6699 115.541C-36.6113 115.682 -36.582 115.832 -36.582 115.992C-36.582 116.148 -36.6113 116.297 -36.6699 116.438C-36.7285 116.574 -36.8105 116.695 -36.916 116.801C-37.0176 116.902 -37.1387 116.982 -37.2793 117.041C-37.4199 117.104 -37.5723 117.135 -37.7363 117.135C-37.8926 117.135 -38.0391 117.104 -38.1758 117.041C-38.3125 116.982 -38.4316 116.902 -38.5332 116.801C-38.6348 116.695 -38.7148 116.574 -38.7734 116.438C-38.832 116.297 -38.8613 116.148 -38.8613 115.992C-38.8613 115.832 -38.832 115.682 -38.7734 115.541C-38.7148 115.4 -38.6348 115.279 -38.5332 115.178C-38.4316 115.072 -38.3125 114.99 -38.1758 114.932C-38.0391 114.869 -37.8926 114.838 -37.7363 114.838ZM-28.0801 112.846C-28.0801 113.15 -28.1113 113.441 -28.1738 113.719C-28.2363 113.992 -28.3379 114.234 -28.4785 114.445C-28.6191 114.652 -28.8047 114.816 -29.0352 114.938C-29.2617 115.059 -29.5391 115.119 -29.8672 115.119C-30.0859 115.119 -30.2852 115.084 -30.4648 115.014C-30.6406 114.939 -30.8027 114.85 -30.9512 114.744C-31.0957 114.635 -31.2305 114.518 -31.3555 114.393C-31.4766 114.264 -31.5938 114.146 -31.707 114.041C-31.8203 113.936 -31.9316 113.848 -32.041 113.777C-32.1504 113.703 -32.2656 113.666 -32.3867 113.666C-32.5586 113.666 -32.6914 113.742 -32.7852 113.895C-32.8789 114.047 -32.9258 114.314 -32.9258 114.697H-34.127C-34.127 114.393 -34.0957 114.104 -34.0332 113.83C-33.9707 113.553 -33.8691 113.311 -33.7285 113.104C-33.5879 112.896 -33.4043 112.732 -33.1777 112.611C-32.9473 112.49 -32.668 112.43 -32.3398 112.43C-32.1211 112.43 -31.9238 112.467 -31.748 112.541C-31.5684 112.611 -31.4062 112.701 -31.2617 112.811C-31.1133 112.916 -30.9785 113.031 -30.8574 113.156C-30.7324 113.281 -30.6133 113.398 -30.5 113.508C-30.3867 113.613 -30.2754 113.703 -30.166 113.777C-30.0566 113.848 -29.9414 113.883 -29.8203 113.883C-29.6445 113.883 -29.5117 113.807 -29.4219 113.654C-29.3281 113.498 -29.2812 113.229 -29.2812 112.846H-28.0801ZM40.6445 108.721L42.1797 110.256H40.75L38.7109 108.721H40.6445ZM46.8555 108.721L50.9512 118.26H49.5566L45.4668 108.721H46.8555ZM70.8848 112.846C70.8848 113.15 70.8535 113.441 70.791 113.719C70.7285 113.992 70.627 114.234 70.4863 114.445C70.3457 114.652 70.1602 114.816 69.9297 114.938C69.7031 115.059 69.4258 115.119 69.0977 115.119C68.8789 115.119 68.6797 115.084 68.5 115.014C68.3242 114.939 68.1621 114.85 68.0137 114.744C67.8691 114.635 67.7344 114.518 67.6094 114.393C67.4883 114.264 67.3711 114.146 67.2578 114.041C67.1445 113.936 67.0332 113.848 66.9238 113.777C66.8145 113.703 66.6992 113.666 66.5781 113.666C66.4062 113.666 66.2734 113.742 66.1797 113.895C66.0859 114.047 66.0391 114.314 66.0391 114.697H64.8379C64.8379 114.393 64.8691 114.104 64.9316 113.83C64.9941 113.553 65.0957 113.311 65.2363 113.104C65.377 112.896 65.5605 112.732 65.7871 112.611C66.0176 112.49 66.2969 112.43 66.625 112.43C66.8438 112.43 67.041 112.467 67.2168 112.541C67.3965 112.611 67.5586 112.701 67.7031 112.811C67.8516 112.916 67.9863 113.031 68.1074 113.156C68.2324 113.281 68.3516 113.398 68.4648 113.508C68.5781 113.613 68.6895 113.703 68.7988 113.777C68.9082 113.848 69.0234 113.883 69.1445 113.883C69.3203 113.883 69.4531 113.807 69.543 113.654C69.6367 113.498 69.6836 113.229 69.6836 112.846H70.8848ZM77.4824 112.846C77.4824 113.15 77.4512 113.441 77.3887 113.719C77.3262 113.992 77.2246 114.234 77.084 114.445C76.9434 114.652 76.7578 114.816 76.5273 114.938C76.3008 115.059 76.0234 115.119 75.6953 115.119C75.4766 115.119 75.2773 115.084 75.0977 115.014C74.9219 114.939 74.7598 114.85 74.6113 114.744C74.4668 114.635 74.332 114.518 74.207 114.393C74.0859 114.264 73.9688 114.146 73.8555 114.041C73.7422 113.936 73.6309 113.848 73.5215 113.777C73.4121 113.703 73.2969 113.666 73.1758 113.666C73.0039 113.666 72.8711 113.742 72.7773 113.895C72.6836 114.047 72.6367 114.314 72.6367 114.697H71.4355C71.4355 114.393 71.4668 114.104 71.5293 113.83C71.5918 113.553 71.6934 113.311 71.834 113.104C71.9746 112.896 72.1582 112.732 72.3848 112.611C72.6152 112.49 72.8945 112.43 73.2227 112.43C73.4414 112.43 73.6387 112.467 73.8145 112.541C73.9941 112.611 74.1562 112.701 74.3008 112.811C74.4492 112.916 74.584 113.031 74.7051 113.156C74.8301 113.281 74.9492 113.398 75.0625 113.508C75.1758 113.613 75.2871 113.703 75.3965 113.777C75.5059 113.848 75.6211 113.883 75.7422 113.883C75.918 113.883 76.0508 113.807 76.1406 113.654C76.2344 113.498 76.2812 113.229 76.2812 112.846H77.4824ZM80.2305 108.721L81.7656 110.256H80.3359L78.2969 108.721H80.2305ZM84.3555 119.402V118.271H90.9531V119.402H84.3555ZM90.9531 119.402V118.271H97.5508V119.402H90.9531ZM99.3613 118.26H97.9727L102.062 108.721H103.457L99.3613 118.26ZM132.35 118.26H130.961L135.051 108.721H136.445L132.35 118.26ZM-34.6777 126.846C-34.6777 127.15 -34.709 127.441 -34.7715 127.719C-34.834 127.992 -34.9355 128.234 -35.0762 128.445C-35.2168 128.652 -35.4023 128.816 -35.6328 128.938C-35.8594 129.059 -36.1367 129.119 -36.4648 129.119C-36.6836 129.119 -36.8828 129.084 -37.0625 129.014C-37.2383 128.939 -37.4004 128.85 -37.5488 128.744C-37.6934 128.635 -37.8281 128.518 -37.9531 128.393C-38.0742 128.264 -38.1914 128.146 -38.3047 128.041C-38.418 127.936 -38.5293 127.848 -38.6387 127.777C-38.748 127.703 -38.8633 127.666 -38.9844 127.666C-39.1562 127.666 -39.2891 127.742 -39.3828 127.895C-39.4766 128.047 -39.5234 128.314 -39.5234 128.697H-40.7246C-40.7246 128.393 -40.6934 128.104 -40.6309 127.83C-40.5684 127.553 -40.4668 127.311 -40.3262 127.104C-40.1855 126.896 -40.002 126.732 -39.7754 126.611C-39.5449 126.49 -39.2656 126.43 -38.9375 126.43C-38.7188 126.43 -38.5215 126.467 -38.3457 126.541C-38.166 126.611 -38.0039 126.701 -37.8594 126.811C-37.7109 126.916 -37.5762 127.031 -37.4551 127.156C-37.3301 127.281 -37.2109 127.398 -37.0977 127.508C-36.9844 127.613 -36.873 127.703 -36.7637 127.777C-36.6543 127.848 -36.5391 127.883 -36.418 127.883C-36.2422 127.883 -36.1094 127.807 -36.0195 127.654C-35.9258 127.498 -35.8789 127.229 -35.8789 126.846H-34.6777ZM53.8398 122.721L55.375 124.256H53.9453L51.9062 122.721H53.8398ZM59.4414 128.445V127.174H63.0859V128.445H59.4414ZM66.0391 128.445V127.174H69.6836V128.445H66.0391ZM75.0742 125.639H73.8496L73.6562 122.721H75.2617L75.0742 125.639ZM79.5684 132.26H78.1797L82.2695 122.721H83.6641L79.5684 132.26ZM46.5801 146.26H45.1914L49.2812 136.721H50.6758L46.5801 146.26ZM72.9707 146.26H71.582L75.6719 136.721H77.0664L72.9707 146.26ZM105.959 146.26H104.57L108.66 136.721H110.055L105.959 146.26ZM39.9824 160.26H38.5938L42.6836 150.721H44.0781L39.9824 160.26ZM59.7754 160.26H58.3867L62.4766 150.721H63.8711L59.7754 160.26ZM68.4766 153.639H67.252L67.0586 150.721H68.6641L68.4766 153.639ZM99.3613 160.26H97.9727L102.062 150.721H103.457L99.3613 160.26Z" fill="black"/>
</g>
</g>
<defs>
<filter id="filter0_d_864_12" x="-44.7246" y="10.7207" width="257.744" height="157.539" filterUnits="userSpaceOnUse" color-interpolation-filters="sRGB">
<feFlood flood-opacity="0" result="BackgroundImageFix"/>
<feColorMatrix in="SourceAlpha" type="matrix" values="0 0 0 0 0 0 0 0 0 0 0 0 0 0 0 0 0 0 127 0" result="hardAlpha"/>
<feOffset dy="4"/>
<feGaussianBlur stdDeviation="2"/>
<feComposite in2="hardAlpha" operator="out"/>
<feColorMatrix type="matrix" values="0 0 0 0 0 0 0 0 0 0 0 0 0 0 0 0 0 0 0.25 0"/>
<feBlend mode="normal" in2="BackgroundImageFix" result="effect1_dropShadow_864_12"/>
<feBlend mode="normal" in="SourceGraphic" in2="effect1_dropShadow_864_12" result="shape"/>
</filter>
<clipPath id="clip0_864_12">
<rect width="150" height="150" fill="white"/>
</clipPath>
</defs>
</svg>
